<svg id="Layer_1" data-name="Layer 1" xmlns="http://www.w3.org/2000/svg" width="186.3403" height="172.6162" viewBox="0 0 186.3403 172.6162"><title>icon-mask</title><path d="M35.8561,112.391a4.6025,4.6025,0,0,0-.1658,6.74l10.0274,9.8964a4.7527,4.7527,0,0,0,6.42.233,64.73,64.73,0,0,1,22.2644-12.5665L58.3767,97.914A88.2009,88.2009,0,0,0,35.8561,112.391Z" transform="translate(-1.695 -9)"/><path d="M27.3605,61.5661a134.1813,134.1813,0,0,0-24.1838,17.77,4.628,4.628,0,0,0-.1018,6.6908l9.9692,9.8906a4.7279,4.7279,0,0,0,6.5219.1106A110.833,110.833,0,0,1,42.8215,79.6848Z" transform="translate(-1.695 -9)"/><path d="M76.2309,155.3627a18.6267,18.6267,0,0,0,36.27,5.98L91.7389,137.0112A18.6221,18.6221,0,0,0,76.2309,155.3627Z" transform="translate(-1.695 -9)"/><path d="M186.5531,79.3359A135.1371,135.1371,0,0,0,69.671,45.9254L39.333,10.3722a3.9105,3.9105,0,0,0-5.513-.4363L23.57,18.6827a3.9105,3.9105,0,0,0-.4364,5.5131L156.2914,180.2441a3.9106,3.9106,0,0,0,5.513.4363l10.25-8.7468a3.9107,3.9107,0,0,0,.4364-5.5131L141.66,130.2891a4.7314,4.7314,0,0,0,2.35-1.2615l10.0275-9.8964a4.6023,4.6023,0,0,0-.1631-6.74A88.45,88.45,0,0,0,108.298,91.1925L87.7237,67.0813a111.2839,111.2839,0,0,1,82.4432,28.9466,4.7307,4.7307,0,0,0,6.5218-.1106l9.9693-9.8906A4.63,4.63,0,0,0,186.5531,79.3359Z" transform="translate(-1.695 -9)"/></svg>