<svg id="pwa-icon" xmlns="http://www.w3.org/2000/svg" width="495.2447" height="356.0718" viewBox="0 0 495.2447 356.0718"><defs><style>.cls-1{fill:#0096ff;}.cls-2{fill:#00b7ff;}.cls-3{fill:#fff;}.cls-4{fill:#3d3d3d;}</style></defs><title>pwa-icon</title><path class="cls-1" d="M95.6427,77.9641H415.9583L387.6513,395.3,256.5454,434.0359,123.95,395.3Z" transform="translate(-8.3777 -77.9641)"/><polygon class="cls-2" points="248.168 26.817 379.274 26.817 353.946 299.458 248.168 327.765 248.168 26.817"/><path class="cls-3" d="M245.4545,238.4515q-1.3,3.9475-2.6,7.8952-16.2386,49.4115-32.4585,98.8291a1.3219,1.3219,0,0,1-1.5049,1.0921q-23.3035-.0421-46.6072-.002a1.6876,1.6876,0,0,1-1.6887-.9658q-12.0182-20.6763-24.1036-41.3134a3.0729,3.0729,0,0,1-.2622-2.79q12.1545-37.2675,24.24-74.5574c.0535-.1647.1123-.3276.2489-.7243l27.6436,54.7538c.2779-.7009.4512-1.0771.5788-1.4682q19.2073-58.8964,38.3829-117.803a1.6283,1.6283,0,0,1,1.885-1.3279q17.6784.0583,35.357,0a1.5319,1.5319,0,0,1,1.77,1.3066q15.51,51.1956,31.0757,102.3743,2.3274,7.6624,4.6374,15.33c.1283.4228.3083.83.5535,1.4815.2792-.5358.4586-.8306.5927-1.1447q25.0036-58.5492,50-117.1013c.9477-2.22.9439-2.2216,3.3622-2.2216h47.094c-.16.4653-.264.8187-.4011,1.1588q-27.6072,68.4384-55.219,136.8751-9.437,23.391-18.8509,46.7912a1.82,1.82,0,0,1-2.0168,1.3582q-23.1427-.0662-46.2857-.0083a1.4455,1.4455,0,0,1-1.6566-1.1921q-12.121-38.8431-24.2891-77.6717-4.3552-13.9124-8.7274-27.8193c-.1228-.3909-.2858-.7692-.43-1.1533Z" transform="translate(-8.3777 -77.9641)"/><path class="cls-4" d="M55.4148,346.2286H8.3777v-186.11c.356-.0244.7314-.0727,1.1067-.0726,26.6795.0091,53.36-.1131,80.0379.0983a67.2177,67.2177,0,0,1,32.3666,8.0468,53.2673,53.2673,0,0,1,18.5532,17.1167,2.4213,2.4213,0,0,1,.3579,2.3586q-11.8133,36.2391-23.5728,72.4958c-1.9575,6.0246-3.9386,12.0416-5.8639,18.0764a1.5905,1.5905,0,0,1-1.2752,1.2083,74.24,74.24,0,0,1-17.4112,2.5767c-11.8535.1747-23.71.1663-35.565.2306-1.695.0092-1.6967.0017-1.6968,1.6614q-.0006,30.3009,0,60.6018Zm0-125.1708c0,7.9593.0184,15.9187-.0218,23.8778-.0054,1.0714.2914,1.4117,1.3859,1.401,5.3214-.0518,10.6439.0127,15.9653-.035a61.6519,61.6519,0,0,0,12.6522-1.2c7.86-1.7145,13.4555-6.0378,15.9887-13.835a31.6,31.6,0,0,0,.2932-19.4609,20.0063,20.0063,0,0,0-13.885-13.9495,46.1371,46.1371,0,0,0-13.0827-1.8624c-5.9637-.0805-11.9293-.027-17.8941-.0289-1.3954-.0005-1.4006.0032-1.401,1.4289Q55.4131,209.2259,55.4151,221.0578Z" transform="translate(-8.3777 -77.9641)"/><path class="cls-4" d="M428.7205,276.9122c-.8011-2.2546-1.499-4.2285-2.2034-6.2q-8.5536-23.9385-17.0841-47.8851a2.7733,2.7733,0,0,1,.0225-1.7909q11.7657-29.874,23.5968-59.7221c.1147-.29.249-.5721.4729-1.0835q35.1033,93.1357,70.0971,185.9807c-.46.0271-.7934.0639-1.1266.064q-24.6973.0042-49.3947.02a1.2728,1.2728,0,0,1-1.4458-1.0037c-3.7211-10.4291-7.4974-20.8386-11.211-31.27a1.471,1.471,0,0,0-1.67-1.168q-32.09.0408-64.1809.0209H373.152c.1411-.4424.2322-.8.3667-1.14q6.6627-16.8406,13.312-33.6866a1.5421,1.5421,0,0,1,1.71-1.1563q19.179.0461,38.3583.0206Z" transform="translate(-8.3777 -77.9641)"/></svg>